<?xml version="1.0" standalone="no"?>
<!DOCTYPE svg PUBLIC "-//W3C//DTD SVG 20010904//EN"
 "http://www.w3.org/TR/2001/REC-SVG-20010904/DTD/svg10.dtd">
<svg version="1.0" xmlns="http://www.w3.org/2000/svg"
 width="200.000000pt" height="200.000000pt" viewBox="0 0 200.000000 200.000000"
 preserveAspectRatio="xMidYMid meet">

<g transform="translate(0.000000,200.000000) scale(0.100000,-0.100000)"
fill="#000000" stroke="none">
<path d="M396 1394 c-130 -31 -231 -111 -285 -224 -23 -49 -26 -67 -26 -170 0
-110 1 -118 33 -182 105 -213 402 -293 647 -174 48 24 135 105 160 150 9 16
15 12 50 -35 77 -103 192 -159 345 -166 251 -13 433 117 471 336 17 92 -5 204
-58 302 -2 3 36 41 84 84 48 43 90 82 91 87 5 12 -594 10 -664 -3 -118 -21
-246 -106 -290 -191 l-15 -30 -28 44 c-94 147 -313 221 -515 172z m252 -231
c154 -122 78 -364 -115 -365 -70 -1 -121 19 -160 62 -92 103 -61 263 62 322
62 29 164 20 213 -19z m800 16 c64 -31 96 -85 100 -169 6 -95 -25 -153 -102
-192 -50 -25 -140 -27 -190 -3 -113 54 -148 210 -69 314 53 69 173 92 261 50z"/>
</g>
</svg>
